<svg width="19" height="19" viewBox="0 0 19 19" fill="none" xmlns="http://www.w3.org/2000/svg">
<path d="M9.05612 1.53245C8.82492 1.60917 8.64234 1.78873 8.56177 2.01862L2.72609 18.6696H1.26056C0.651965 18.6696 0.231823 18.0602 0.448224 17.4914L6.86839 0.615707C7.00941 0.245022 7.36478 0 7.76139 0H8.80848C9.70099 0 9.9032 1.25134 9.05612 1.53245ZM14.6701 18.6696C14.1836 18.6696 13.7491 18.3652 13.583 17.9079L7.74331 1.83245C7.7004 1.71434 7.67703 1.59003 7.67412 1.4644L7.66759 1.18336C7.65253 0.534297 8.17457 0 8.8238 0H10.3387C10.8034 0 11.223 0.278108 11.4039 0.70609L18.3205 17.0626C18.6429 17.8251 18.0832 18.6696 17.2553 18.6696H14.6701ZM9.51289 11.7582C10.6744 11.7582 11.1111 13.2787 10.1266 13.895L8.53678 14.8903L2.72609 18.6696L3.35846 12.7911C3.42166 12.2036 3.9175 11.7582 4.50835 11.7582H9.51289Z" fill="#DFB600"/>
</svg>
